#!OML:ASF H:\Terrain\Patient Classification 1\PLAYGROUND\JustinFriday\JustinFriday.ASF
:FULLY-SPECIFIED
:DEGREES
1224
root -14.6545 28.2302 -4.22483 363.778 -41.9663 -31.7758
lowerback 34.2765 11.8258 14.2922
upperback 8.59861 18.8925 -3.96262
thorax -1.81867 9.67108 -16.7445
lowerneck 12.7851 -9.94963 34.8421
upperneck 16.4245 -8.67593 -7.16843
head 1.745 -2.58465 -7.24366
rclavicle -2.22639e-014 -2.38542e-014
rhumerus -20.7693 -62.6045 -21.299
rradius 105.069
rwrist -36.3628
rhand -32.5394 -9.55094
rfingers 7.12502
rthumb -5.76957 -39.4524
lclavicle -2.22639e-014 -2.38542e-014
lhumerus -51.0162 -47.842 86.732
lradius 64.184
lwrist -13.6777
lhand -50.1719 -58.4228
lfingers 7.12502
lthumb -22.754 -29.7446
rfemur 6.02557 0.801459 27.694
rtibia 33.4668
rfoot 27.285 6.76417
rtoes -7.24732
lfemur -54.7958 19.0648 21.6228
ltibia 105.5
lfoot 9.01947 -14.9246
ltoes -7.98489
1225
root -14.6119 28.2301 -4.20462 364.668 -42.1522 -33.379
lowerback 34.4887 11.7282 15.1363
upperback 8.46973 19.1195 -3.67793
thorax -1.79796 9.78184 -16.898
lowerneck 13.648 -10.2759 35.7568
upperneck 15.0626 -8.47968 -8.26539
head 1.13134 -2.57281 -7.65878
rclavicle -1.95604e-013 9.22361e-014
rhumerus -18.2209 -64.105 -23.1685
rradius 103.502
rwrist -34.244
rhand -30.9663 -9.04576
rfingers 7.12502
rthumb -4.25059 -38.9831
lclavicle -1.95604e-013 9.22361e-014
lhumerus -51.3481 -47.7483 87.2377
lradius 64.2469
lwrist -13.1272
lhand -49.7788 -59.4993
lfingers 7.12502
lthumb -22.3768 -30.7752
rfemur 4.5269 0.490103 28.4351
rtibia 36.1552
rfoot 26.3429 8.09929
rtoes -10.747
lfemur -54.2861 19.2855 22.9799
ltibia 105.601
lfoot 9.24885 -15.6734
ltoes -7.28595
1226
root -14.5634 28.2483 -4.18182 365.045 -41.8523 -33.994
lowerback 34.1724 11.5489 15.6397
upperback 8.75164 19.0198 -3.49662
thorax -1.30243 9.81499 -16.7937
lowerneck 13.0252 -10.077 35.6916
upperneck 15.2268 -8.49084 -8.26808
head 1.26114 -2.57606 -7.67999
rclavicle -1.09729e-013 5.56597e-014
rhumerus -22.3757 -62.5373 -19.4134
rradius 103.733
rwrist -35.3228
rhand -31.1235 -8.60717
rfingers 7.12502
rthumb -4.40242 -38.5414
lclavicle -1.09729e-013 5.56597e-014
lhumerus -50.8447 -47.8262 87.4103
lradius 63.9887
lwrist -12.3367
lhand -49.3698 -61.0506
lfingers 7.12502
lthumb -21.9841 -32.2799
rfemur 2.97526 -0.269911 28.4046
rtibia 38.6313
rfoot 27.0745 4.06547
rtoes -3.57146
lfemur -54.393 18.8724 23.1339
ltibia 105.607
lfoot 10.188 -14.9008
ltoes -0.308516
1227
root -14.512 28.2773 -4.18458 365.264 -41.6385 -34.0786
lowerback 34.2296 11.463 16.0875
upperback 7.33739 19.2931 -3.36234
thorax -2.70099 9.70366 -17.1628
lowerneck 19.0282 -11.8787 34.7246
upperneck 13.1445 -8.50479 -7.67661
head -0.054109 -2.71661 -7.05542
rclavicle 4.29375e-014 -6.36111e-015
rhumerus -23.7102 -62.3761 -17.9477
rradius 103.034
rwrist -35.028
rhand -28.7864 -9.0808
rfingers 7.12502
rthumb -2.1454 -39.0498
lclavicle 4.29375e-014 -6.36111e-015
lhumerus -55.794 -47.9818 91.1465
lradius 64.0103
lwrist -11.6622
lhand -48.933 -62.2293
lfingers 7.12502
lthumb -21.5647 -33.41
rfemur 1.16761 -0.927592 28.0132
rtibia 40.953
rfoot 27.416 1.23398
rtoes 1.9896
lfemur -54.6638 18.4024 22.7502
ltibia 105.48
lfoot 10.7928 -14.6362
ltoes 3.06245
1228
root -14.4732 28.3637 -4.1515 364.788 -41.7912 -33.711
lowerback 33.8632 11.6175 15.5448
upperback 8.46532 19.1069 -3.30993
thorax -1.55886 9.80267 -16.5572
lowerneck 15.7172 -10.8055 35.2328
upperneck 13.8705 -8.35502 -8.30881
head 0.506384 -2.61068 -7.49747
rclavicle 8.11041e-014 -1.08139e-013
rhumerus -22.0829 -63.2645 -19.1708
rradius 102.502
rwrist -34.8628
rhand -30.4905 -8.35035
rfingers 7.12502
rthumb -3.79112 -38.2964
lclavicle 8.11041e-014 -1.08139e-013
lhumerus -53.2927 -47.9059 90.0012
lradius 63.8759
lwrist -10.6876
lhand -48.2991 -62.7396
lfingers 7.12502
lthumb -20.9557 -33.8517
rfemur 0.480353 -1.04771 27.0504
rtibia 43.0087
rfoot 26.1886 -5.93495
rtoes 22.0151
lfemur -53.5465 16.9615 22.1035
ltibia 105.077
lfoot 10.6091 -14.2791
ltoes 3.12157
1229
root -14.4338 28.3796 -4.13137 364.729 -41.895 -34.4007
lowerback 34.3453 11.4847 16.0033
upperback 9.00635 19.0814 -3.18099
thorax -1.05573 9.88062 -16.6005
lowerneck 14.0185 -10.2435 35.3941
upperneck 14.0102 -8.27643 -8.5502
head 0.75613 -2.58207 -7.6726
rclavicle -3.18055e-014 -7.31528e-014
rhumerus -21.3828 -63.5128 -19.8433
rradius 101.897
rwrist -33.6798
rhand -32.427 -7.76857
rfingers 7.12502
rthumb -5.66098 -37.673
lclavicle -3.18055e-014 -7.31528e-014
lhumerus -51.5047 -48.2744 89.4333
lradius 63.4527
lwrist -9.56555
lhand -47.7346 -63.1074
lfingers 7.12502
lthumb -20.4134 -34.1604
rfemur -0.411526 -1.24331 27.1211
rtibia 45.1958
rfoot 25.1927 -8.80639
rtoes 28.7348
lfemur -52.833 16.4138 22.5897
ltibia 104.935
lfoot 10.6654 -14.5624
ltoes 2.18167
1230
root -14.398 28.3901 -4.1185 365.141 -42.0347 -35.4961
lowerback 34.4665 11.4103 16.6881
upperback 9.34904 19.2071 -2.93706
thorax -0.543144 10.029 -16.5996
lowerneck 13.2439 -9.9901 35.3237
upperneck 14.0284 -8.26375 -8.61578
head 0.857349 -2.5909 -7.71475
rclavicle -1.00187e-013 -9.54166e-015
rhumerus -20.7598 -64.0274 -20.3062
rradius 101.188
rwrist -32.4388
rhand -32.7253 -7.92798
rfingers 7.12502
rthumb -5.94902 -37.8245
lclavicle -1.00187e-013 -9.54166e-015
lhumerus -50.4213 -48.4672 89.341
lradius 63.1146
lwrist -9.17685
lhand -47.7925 -63.7616
lfingers 7.12502
lthumb -20.469 -34.8206
rfemur -1.84524 -2.12485 27.5035
rtibia 47.2892
rfoot 27.1123 -0.759956
rtoes 8.62491
lfemur -52.2262 16.3737 23.366
ltibia 104.824
lfoot 10.2731 -15.0799
ltoes 0.376624
1231
root -14.3397 28.4038 -4.18197 366.135 -42.2333 -37.0421
lowerback 34.8143 11.4451 17.1868
upperback 9.53635 19.4562 -2.51163
thorax -0.361453 10.1624 -16.4043
lowerneck 12.9866 -9.8175 35.0585
upperneck 13.6056 -8.15463 -8.73643
head 0.764816 -2.59216 -7.72397
rclavicle -7.63333e-014 -1.27222e-014
rhumerus -20.0478 -64.3554 -20.4654
rradius 100.781
rwrist -32.7853
rhand -34.4513 -7.62553
rfingers 7.12502
rthumb -7.61518 -37.4684
lclavicle -7.63333e-014 -1.27222e-014
lhumerus -49.2148 -48.2376 89.3913
lradius 62.8942
lwrist -8.74078
lhand -47.4094 -64.7285
lfingers 7.12502
lthumb -20.1008 -35.7483
rfemur -3.99215 -1.95404 28.6116
rtibia 49.6807
rfoot 27.1334 0.751196
rtoes 3.60251
lfemur -52.1924 16.6801 24.5468
ltibia 104.458
lfoot 10.9578 -15.5277
ltoes 0.645335
1232
root -14.3198 28.4249 -4.12846 365.721 -42.3708 -37.0084
lowerback 35.4966 11.4048 16.9317
upperback 8.99157 19.4737 -2.56161
thorax -1.28543 10.0131 -16.5876
lowerneck 13.9047 -10.0719 35.0744
upperneck 13.7071 -8.14134 -8.5174
head 0.701081 -2.56052 -7.62548
rclavicle -3.33958e-014 7.31528e-014
rhumerus -21.1729 -63.1755 -19.9563
rradius 100.638
rwrist -33.7613
rhand -38.3429 -6.45107
rfingers 7.12502
rthumb -11.3699 -36.1228
lclavicle -3.33958e-014 7.31528e-014
lhumerus -50.3713 -48.5202 90.163
lradius 62.828
lwrist -6.93798
lhand -45.922 -65.3897
lfingers 7.12502
lthumb -18.6706 -36.2657
rfemur -4.96013 -2.32279 27.9635
rtibia 52.0167
rfoot 26.0029 4.47633
rtoes -5.30677
lfemur -51.209 16.1029 24.3127
ltibia 104.42
lfoot 10.4886 -15.3966
ltoes 1.74152
1233
root -14.2789 28.476 -4.12773 364.372 -41.9277 -35.8724
lowerback 35.9013 11.213 16.5141
upperback 9.33789 19.0814 -2.6497
thorax -1.29193 9.83001 -16.4686
lowerneck 14.0286 -10.017 34.7587
upperneck 13.326 -8.07471 -8.15042
head 0.606084 -2.57258 -7.44648
rclavicle 1.90833e-014 -8.42847e-014
rhumerus -21.4521 -63.2916 -19.8234
rradius 100.323
rwrist -33.8398
rhand -35.4004 -6.41026
rfingers 7.12502
rthumb -8.53119 -36.2179
lclavicle 1.90833e-014 -8.42847e-014
lhumerus -50.2615 -48.38 90.4308
lradius 62.7033
lwrist -5.50649
lhand -44.4656 -66.0492
lfingers 7.12502
lthumb -17.2693 -36.7965
rfemur -6.04891 -3.06207 26.7005
rtibia 54.4612
rfoot 25.0518 5.01659
rtoes -8.54807
lfemur -50.8173 14.9635 22.9458
ltibia 104.081
lfoot 10.4436 -14.8307
ltoes 2.57608
1234
root -14.2411 28.5109 -4.11122 364.86 -41.4026 -36.6183
lowerback 35.4478 10.9312 17.2331
upperback 9.59971 18.919 -2.4173
thorax -0.741228 9.84633 -16.3717
lowerneck 13.8131 -9.98318 35.0012
upperneck 13.0329 -8.03336 -8.77628
head 0.493857 -2.57313 -7.69171
rclavicle 7.95139e-015 -7.95139e-015
rhumerus -22.981 -63.654 -18.0035
rradius 100.533
rwrist -37.9583
rhand -31.1993 -6.38846
rfingers 7.12502
rthumb -4.47559 -36.3212
lclavicle 7.95139e-015 -7.95139e-015
lhumerus -49.6965 -48.2541 90.5055
lradius 62.5032
lwrist -4.83872
lhand -43.7394 -66.4486
lfingers 7.12502
lthumb -16.5703 -37.1361
rfemur -7.71438 -3.75906 26.8065
rtibia 56.8611
rfoot 24.413 2.51766
rtoes -3.81627
lfemur -51.0029 14.4095 23.2321
ltibia 103.911
lfoot 10.5387 -14.5329
ltoes 3.17572
